<?xml version="1.0" encoding="UTF-8" standalone="no"?>
<svg width="1984px" height="782px" viewBox="0 0 1984 782" version="1.1" xmlns="http://www.w3.org/2000/svg" xmlns:xlink="http://www.w3.org/1999/xlink">
    <!-- Generator: Sketch 42 (36781) - http://www.bohemiancoding.com/sketch -->
    <title>Group</title>
    <desc>Created with Sketch.</desc>
    <defs></defs>
    <g id="Page-1" stroke="none" stroke-width="1" fill="none" fill-rule="evenodd">
        <g id="Group">
            <g id="react-logo" transform="translate(206.710526, 298.533333)" fill-rule="nonzero">
                <path d="M292.213361,217.126761 C292.213361,242.442439 271.683219,262.965627 246.358963,262.965627 C221.034707,262.965627 200.504565,242.442439 200.504565,217.126761 C200.504565,191.811082 221.034707,171.287894 246.358963,171.287894 C271.683219,171.287894 292.213361,191.811082 292.213361,217.126761 Z" id="Shape" fill="#00D8FF"></path>
                <path d="M246.358963,123.926761 C307.924711,123.926761 365.117714,132.757918 408.240975,147.598647 C460.198386,165.479341 492.143912,192.584094 492.143912,217.126761 C492.143912,242.702851 458.287139,271.496169 402.492609,289.976267 C360.308975,303.948043 304.801453,311.240486 246.358963,311.240486 C186.440307,311.240486 129.700665,304.394855 87.0517877,289.821847 C33.0816719,271.381039 0.574014035,242.214008 0.574014035,217.126761 C0.574014035,192.783286 31.0753649,165.88869 82.3024614,148.034494 C125.586593,132.9498 184.191781,123.926761 246.358963,123.926761 Z" id="Shape" stroke="#00D8FF" stroke-width="24" fill-opacity="0" fill="#000000"></path>
                <path d="M165.199046,170.795396 C195.955412,117.481341 232.180451,72.3652314 266.583818,42.4352392 C308.035309,6.37414902 347.482321,-7.74930588 368.750089,4.51106275 C390.913612,17.2876863 398.951637,60.9920902 387.092032,118.540349 C378.125347,162.050129 356.714989,213.76151 327.518881,264.371851 C297.585146,316.260494 263.307916,361.975094 229.372535,391.628227 C186.430253,429.153106 144.915693,442.73198 123.175368,430.199322 C102.080353,418.037635 94.0121649,378.189153 104.132361,324.907992 C112.68316,279.888737 134.141961,224.631188 165.199046,170.795396 Z" id="Shape" stroke="#00D8FF" stroke-width="24" fill-opacity="0" fill="#000000"></path>
                <path d="M165.276739,264.507082 C134.431711,211.244196 113.422614,157.338961 104.665244,112.595651 C94.1136228,58.6867608 101.573977,17.4686039 122.821637,5.1726 C144.963223,-7.64148627 186.854365,7.223 230.805742,46.2354235 C264.036402,75.7304824 298.15916,120.098251 327.440274,170.660165 C357.460842,222.498553 379.961644,275.015839 388.71353,319.215482 C399.788893,375.147361 390.824037,417.883216 369.104735,430.452424 C348.029828,442.648831 309.46486,429.736063 268.342421,394.36118 C233.597205,364.472306 196.424312,318.290792 165.276739,264.507082 Z" id="Shape" stroke="#00D8FF" stroke-width="24" fill-opacity="0" fill="#000000"></path>
            </g>
            <path d="M71.312,701.686 C71.312,701.686 108.459,781.456 106.146,781.516 C103.833,781.574 97.63,781.544 97.63,781.544 L87.64,758.426 L83.717,758.426 L82.51,781.752 L74.028,781.752 L68.998,758.574 L63.198,758.574 L58.874,781.989 L48.144,781.989 L43.854,758.571 L37.82,758.571 L32.99,781.749 L24.51,781.749 L23.335,758.424 L19.38,758.424 L9.422,781.542 C9.422,781.542 3.186,781.572 0.872,781.512 C-1.441,781.452 35.74,701.684 35.74,701.684 L37.08,636.634 L25.75,636.634 L25.75,632.389 L37.92,632.449 L39.43,564.165 L33.46,564.105 L33.46,546.63 L40.535,546.63 L43.385,422.79 L35.84,422.79 L35.84,412.345 L45.43,412.345 L46.602,320.319 L38.254,320.319 L38.254,296.4 L33.494,296.4 L33.459,288.27 L38.319,288.27 L38.384,264.53 L49.25,264.53 L50.055,224.257 L43.215,224.257 L43.215,222.239 L50.458,222.239 L51.028,119.619 L43.183,119.589 L43.183,117.569 L51.163,117.569 L51.733,53.439 L51.733,53.199 L45.027,53.199 L45.027,51.212 L52.772,51.212 L53.509,0.05 L54.244,51.214 L62.022,51.214 L62.022,53.2 L55.32,53.2 L55.32,53.44 L55.856,117.57 L63.836,117.57 L63.836,119.587 L56.023,119.617 L56.593,222.237 L63.835,222.237 L63.835,224.255 L56.995,224.255 L57.8,264.525 L68.663,264.525 L68.697,288.267 L73.557,288.267 L73.524,296.397 L68.764,296.397 L68.764,320.317 L60.449,320.317 L61.589,412.343 L71.175,412.343 L71.175,422.789 L63.632,422.789 L66.515,546.625 L73.589,546.625 L73.589,564.105 L67.622,564.163 L69.097,632.448 L81.267,632.388 L81.267,636.632 L69.967,636.632 L71.309,701.682 L71.312,701.686 Z" id="Shape" fill="#00D8FF"></path>
            <path d="M1024.92,422 L1009.24,422 L982.04,379.6 L960.76,379.6 L960.76,422 L947.48,422 L947.48,315.28 L990.36,315.28 C1009.88,315.28 1023.8,327.76 1023.8,347.44 C1023.8,366.64 1010.68,377.2 996.12,378.48 L1024.92,422 Z M988.76,367.92 C1001.4,367.92 1010.04,359.44 1010.04,347.44 C1010.04,335.44 1001.4,327.12 988.76,327.12 L960.76,327.12 L960.76,367.92 L988.76,367.92 Z M1077.27667,423.92 C1054.39667,423.92 1037.91667,407.44 1037.91667,383.28 C1037.91667,360.88 1053.91667,342.8 1075.99667,342.8 C1099.35667,342.8 1113.11667,361.04 1113.11667,384.24 L1113.11667,387.28 L1050.55667,387.28 C1051.51667,401.84 1061.75667,414 1078.39667,414 C1087.19667,414 1096.15667,410.48 1102.23667,404.24 L1107.99667,412.08 C1100.31667,419.76 1089.91667,423.92 1077.27667,423.92 Z M1101.27667,378.48 C1101.11667,366.96 1093.43667,352.72 1075.83667,352.72 C1059.35667,352.72 1051.19667,366.64 1050.55667,378.48 L1101.27667,378.48 Z M1195.71333,422 L1183.71333,422 L1183.71333,413.2 C1177.31333,420.24 1168.51333,423.92 1158.11333,423.92 C1144.99333,423.92 1131.07333,415.12 1131.07333,398.32 C1131.07333,381.04 1144.99333,372.88 1158.11333,372.88 C1168.67333,372.88 1177.47333,376.24 1183.71333,383.44 L1183.71333,369.52 C1183.71333,359.12 1175.39333,353.2 1164.19333,353.2 C1154.91333,353.2 1147.39333,356.56 1140.51333,363.92 L1134.91333,355.6 C1143.23333,346.96 1153.15333,342.8 1165.79333,342.8 C1182.11333,342.8 1195.71333,350.16 1195.71333,368.88 L1195.71333,422 Z M1162.43333,415.28 C1170.91333,415.28 1179.07333,412.08 1183.71333,405.68 L1183.71333,391.12 C1179.07333,384.72 1170.91333,381.52 1162.43333,381.52 C1151.23333,381.52 1143.39333,388.56 1143.39333,398.48 C1143.39333,408.24 1151.23333,415.28 1162.43333,415.28 Z M1256.71,423.92 C1270.79,423.92 1279.11,418.16 1285.03,410.48 L1277.03,403.12 C1271.91,410 1265.35,413.2 1257.35,413.2 C1240.87,413.2 1230.63,400.4 1230.63,383.28 C1230.63,366.16 1240.87,353.52 1257.35,353.52 C1265.35,353.52 1271.91,356.56 1277.03,363.6 L1285.03,356.24 C1279.11,348.56 1270.79,342.8 1256.71,342.8 C1233.67,342.8 1218.15,360.4 1218.15,383.28 C1218.15,406.32 1233.67,423.92 1256.71,423.92 Z M1324.26667,423.92 C1331.30667,423.92 1335.62667,421.84 1338.66667,418.96 L1335.14667,410 C1333.54667,411.76 1330.34667,413.2 1326.98667,413.2 C1321.70667,413.2 1319.14667,409.04 1319.14667,403.28 L1319.14667,355.28 L1334.82667,355.28 L1334.82667,344.72 L1319.14667,344.72 L1319.14667,323.6 L1307.14667,323.6 L1307.14667,344.72 L1294.34667,344.72 L1294.34667,355.28 L1307.14667,355.28 L1307.14667,405.84 C1307.14667,417.36 1312.90667,423.92 1324.26667,423.92 Z M1503.86,422 L1503.86,315.28 L1484.82,315.28 L1451.54,395.6 L1418.42,315.28 L1399.38,315.28 L1399.38,422 L1412.66,422 L1412.66,334.16 L1448.82,422 L1454.26,422 L1490.58,334.16 L1490.58,422 L1503.86,422 Z M1565.01667,423.92 C1541.49667,423.92 1526.77667,405.68 1526.77667,383.28 C1526.77667,360.88 1541.49667,342.8 1565.01667,342.8 C1588.53667,342.8 1603.25667,360.88 1603.25667,383.28 C1603.25667,405.68 1588.53667,423.92 1565.01667,423.92 Z M1565.01667,413.2 C1581.49667,413.2 1590.61667,399.12 1590.61667,383.28 C1590.61667,367.6 1581.49667,353.52 1565.01667,353.52 C1548.53667,353.52 1539.25667,367.6 1539.25667,383.28 C1539.25667,399.12 1548.53667,413.2 1565.01667,413.2 Z M1650.17333,423.92 C1670.17333,423.92 1680.57333,413.52 1680.57333,400.56 C1680.57333,370.48 1632.73333,381.68 1632.73333,364.72 C1632.73333,357.84 1639.29333,352.56 1649.85333,352.56 C1659.77333,352.56 1668.25333,356.72 1672.89333,362.32 L1678.49333,354 C1672.25333,347.76 1662.97333,342.8 1649.85333,342.8 C1631.45333,342.8 1621.05333,353.04 1621.05333,365.04 C1621.05333,393.68 1668.89333,382.16 1668.89333,400.88 C1668.89333,408.56 1662.49333,414.16 1650.65333,414.16 C1640.09333,414.16 1630.33333,409.04 1625.21333,403.12 L1618.97333,411.76 C1626.81333,420.08 1637.53333,423.92 1650.17333,423.92 Z M1737.09,423.92 C1751.17,423.92 1759.49,418.16 1765.41,410.48 L1757.41,403.12 C1752.29,410 1745.73,413.2 1737.73,413.2 C1721.25,413.2 1711.01,400.4 1711.01,383.28 C1711.01,366.16 1721.25,353.52 1737.73,353.52 C1745.73,353.52 1752.29,356.56 1757.41,363.6 L1765.41,356.24 C1759.49,348.56 1751.17,342.8 1737.09,342.8 C1714.05,342.8 1698.53,360.4 1698.53,383.28 C1698.53,406.32 1714.05,423.92 1737.09,423.92 Z M1818.88667,423.92 C1795.36667,423.92 1780.64667,405.68 1780.64667,383.28 C1780.64667,360.88 1795.36667,342.8 1818.88667,342.8 C1842.40667,342.8 1857.12667,360.88 1857.12667,383.28 C1857.12667,405.68 1842.40667,423.92 1818.88667,423.92 Z M1818.88667,413.2 C1835.36667,413.2 1844.48667,399.12 1844.48667,383.28 C1844.48667,367.6 1835.36667,353.52 1818.88667,353.52 C1802.40667,353.52 1793.12667,367.6 1793.12667,383.28 C1793.12667,399.12 1802.40667,413.2 1818.88667,413.2 Z M1958.44333,422 L1983.08333,344.72 L1970.60333,344.72 L1951.72333,406.32 L1931.40333,344.72 L1921.16333,344.72 L1900.84333,406.32 L1881.96333,344.72 L1869.48333,344.72 L1894.12333,422 L1906.12333,422 L1926.28333,359.92 L1946.44333,422 L1958.44333,422 Z M1051.96,617 L1051.96,510.28 L1032.92,510.28 L999.64,590.6 L966.52,510.28 L947.48,510.28 L947.48,617 L960.76,617 L960.76,529.16 L996.92,617 L1002.36,617 L1038.68,529.16 L1038.68,617 L1051.96,617 Z M1114.23667,618.92 C1091.35667,618.92 1074.87667,602.44 1074.87667,578.28 C1074.87667,555.88 1090.87667,537.8 1112.95667,537.8 C1136.31667,537.8 1150.07667,556.04 1150.07667,579.24 L1150.07667,582.28 L1087.51667,582.28 C1088.47667,596.84 1098.71667,609 1115.35667,609 C1124.15667,609 1133.11667,605.48 1139.19667,599.24 L1144.95667,607.08 C1137.27667,614.76 1126.87667,618.92 1114.23667,618.92 Z M1138.23667,573.48 C1138.07667,561.96 1130.39667,547.72 1112.79667,547.72 C1096.31667,547.72 1088.15667,561.64 1087.51667,573.48 L1138.23667,573.48 Z M1207.23333,618.92 C1184.35333,618.92 1167.87333,602.44 1167.87333,578.28 C1167.87333,555.88 1183.87333,537.8 1205.95333,537.8 C1229.31333,537.8 1243.07333,556.04 1243.07333,579.24 L1243.07333,582.28 L1180.51333,582.28 C1181.47333,596.84 1191.71333,609 1208.35333,609 C1217.15333,609 1226.11333,605.48 1232.19333,599.24 L1237.95333,607.08 C1230.27333,614.76 1219.87333,618.92 1207.23333,618.92 Z M1231.23333,573.48 C1231.07333,561.96 1223.39333,547.72 1205.79333,547.72 C1189.31333,547.72 1181.15333,561.64 1180.51333,573.48 L1231.23333,573.48 Z M1284.87,618.92 C1291.91,618.92 1296.23,616.84 1299.27,613.96 L1295.75,605 C1294.15,606.76 1290.95,608.2 1287.59,608.2 C1282.31,608.2 1279.75,604.04 1279.75,598.28 L1279.75,550.28 L1295.43,550.28 L1295.43,539.72 L1279.75,539.72 L1279.75,518.6 L1267.75,518.6 L1267.75,539.72 L1254.95,539.72 L1254.95,550.28 L1267.75,550.28 L1267.75,600.84 C1267.75,612.36 1273.51,618.92 1284.87,618.92 Z M1379.46667,617 L1379.46667,539.72 L1367.46667,539.72 L1367.46667,596.52 C1362.98667,602.76 1354.02667,608.2 1344.58667,608.2 C1334.18667,608.2 1327.30667,604.2 1327.30667,590.6 L1327.30667,539.72 L1315.30667,539.72 L1315.30667,594.28 C1315.30667,611.08 1323.78667,618.92 1339.94667,618.92 C1351.46667,618.92 1361.54667,612.84 1367.46667,606.12 L1367.46667,617 L1379.46667,617 Z M1444.46333,618.92 C1433.90333,618.92 1424.62333,613.96 1418.38333,605.32 L1418.38333,646.44 L1406.38333,646.44 L1406.38333,539.72 L1418.38333,539.72 L1418.38333,551.24 C1423.98333,543.4 1433.58333,537.8 1444.46333,537.8 C1464.78333,537.8 1478.86333,553.16 1478.86333,578.28 C1478.86333,603.24 1464.78333,618.92 1444.46333,618.92 Z M1441.42333,608.2 C1456.94333,608.2 1466.22333,595.4 1466.22333,578.28 C1466.22333,561.16 1456.94333,548.52 1441.42333,548.52 C1431.98333,548.52 1422.54333,554.12 1418.38333,560.84 L1418.38333,595.72 C1422.54333,602.44 1431.98333,608.2 1441.42333,608.2 Z M1581.01667,617 L1571.25667,617 L1581.01667,588.04 L1563.25667,588.04 L1553.65667,617 L1543.73667,617 L1553.49667,588.04 L1536.53667,588.04 L1539.25667,579.56 L1556.37667,579.56 L1566.93667,547.72 L1549.65667,547.72 L1552.21667,539.4 L1569.81667,539.4 L1579.41667,510.28 L1589.33667,510.28 L1579.73667,539.4 L1597.33667,539.4 L1606.93667,510.28 L1616.69667,510.28 L1606.93667,539.4 L1624.05667,539.4 L1621.65667,547.72 L1604.21667,547.72 L1593.49667,579.56 L1611.25667,579.56 L1608.69667,588.04 L1590.61667,588.04 L1581.01667,617 Z M1583.73667,579.56 L1594.29667,547.72 L1576.69667,547.72 L1566.13667,579.56 L1583.73667,579.56 Z M1712.25333,617 L1712.25333,605.16 L1659.93333,605.16 C1689.69333,581.64 1711.77333,561.8 1711.77333,540.04 C1711.77333,518.76 1693.69333,508.68 1675.93333,508.68 C1660.89333,508.68 1646.97333,514.76 1638.81333,525.48 L1646.97333,533.96 C1653.21333,525.96 1663.13333,520.52 1675.93333,520.52 C1686.97333,520.52 1698.17333,526.44 1698.17333,540.04 C1698.17333,558.44 1677.37333,576.2 1638.97333,606.44 L1638.97333,617 L1712.25333,617 Z" id="React-Moscow-Meetup" fill="#000000"></path>
        </g>
    </g>
</svg>
